<svg width="800" height="800" viewBox="0 0 800 800" fill="none" xmlns="http://www.w3.org/2000/svg">
<path fill-rule="evenodd" clip-rule="evenodd" d="M201.5 245.5C286.399 190.492 393.139 153 460 146C536.853 137.954 767.477 141.345 676.769 382.484C665.937 411.278 663.024 442.766 660.223 473.043C655.226 527.049 650.585 577.206 602 601.368C571.585 616.494 528.352 611.588 482.654 606.402C452.908 603.026 422.117 599.532 393.139 601.368C370.17 602.823 346.967 611.186 323.75 619.554C272.673 637.963 221.526 656.397 172.648 601.368C116.828 538.523 56.3671 339.535 201.5 245.5ZM353.064 353.773V446.227C353.065 452.034 356.165 457.4 361.195 460.302C366.226 463.204 372.422 463.201 377.45 460.295L457.444 414.068C462.469 411.165 465.564 405.803 465.564 400C465.564 394.197 462.469 388.835 457.444 385.932L377.45 339.705C372.422 336.799 366.225 336.797 361.195 339.698C356.165 342.6 353.065 347.966 353.064 353.773Z" fill="#2176FF"/>
</svg>
