<svg width="587" height="495" viewBox="0 0 587 495" fill="none" xmlns="http://www.w3.org/2000/svg">
<path fill-rule="evenodd" clip-rule="evenodd" d="M90.5 102.5C175.399 47.4923 282.139 10 349 3C425.853 -5.04611 656.477 -1.65518 565.769 239.484C554.937 268.278 552.024 299.766 549.223 330.043C544.226 384.049 539.585 434.206 491 458.368C460.585 473.494 417.352 468.588 371.654 463.402C341.908 460.026 311.117 456.532 282.139 458.368C259.17 459.823 235.967 468.186 212.75 476.554C161.673 494.963 110.526 513.397 61.6484 458.368C5.82804 395.523 -54.6329 196.535 90.5 102.5ZM242.064 210.773V303.227C242.065 309.034 245.165 314.4 250.195 317.302C255.226 320.204 261.422 320.201 266.45 317.295L346.444 271.068C351.469 268.165 354.564 262.803 354.564 257C354.564 251.197 351.469 245.835 346.444 242.932L266.45 196.705C261.422 193.799 255.225 193.797 250.195 196.698C245.165 199.6 242.065 204.966 242.064 210.773Z" fill="#2176FF"/>
</svg>
